<svg version="1.1" id="Layer_1" xmlns="http://www.w3.org/2000/svg" xmlns:xlink="http://www.w3.org/1999/xlink" x="0px" y="0px"
	width="100%" viewBox="0 0 496 496" enable-background="new 0 0 496 496" xml:space="preserve">
<path fill="#000000" opacity="1.000000" stroke="none" 
	d="
M361.567993,206.635437 
	C362.489502,210.675247 362.537384,214.282333 362.011017,217.897842 
	C359.097504,219.281204 356.607483,217.674988 354.086029,217.288528 
	C347.801331,216.325333 341.486908,216.101059 335.161774,216.124573 
	C332.141174,216.135803 330.583282,214.861832 329.944092,211.971512 
	C320.324280,168.471298 290.717133,146.138306 249.479446,136.320389 
	C235.711594,133.042511 221.703400,133.540833 207.771088,135.100922 
	C196.642776,136.347061 196.647339,136.576187 195.627701,147.915588 
	C195.419159,150.234558 195.389206,152.573196 195.356918,154.903870 
	C194.932617,185.552155 194.555252,216.201126 194.088333,246.848724 
	C193.956467,255.504639 193.486374,264.155365 193.352402,272.811279 
	C193.305695,275.829803 192.549377,277.471222 189.128113,277.389160 
	C182.467010,277.229370 175.797699,277.264038 169.134903,277.386963 
	C165.941513,277.445892 164.663651,276.203430 164.735748,272.971191 
	C165.355972,245.164047 165.951172,217.356079 166.432831,189.546265 
	C166.695374,174.387695 166.687531,159.224594 166.885971,144.064636 
	C166.928925,140.781601 165.164337,140.058456 162.434723,140.370468 
	C156.805740,141.013870 151.169205,141.501221 145.496719,141.267395 
	C143.880112,141.200760 142.167877,141.635574 140.637253,140.492249 
	C140.238220,138.238159 142.257126,137.814194 143.490311,136.990585 
	C150.554123,132.272888 157.746964,127.746658 164.767242,122.966331 
	C167.563431,121.062317 170.431229,120.419754 173.716034,120.767509 
	C193.679703,122.881035 213.586060,121.289055 233.529785,120.088081 
	C266.877747,118.079910 298.842743,122.939278 326.658997,142.971039 
	C348.045563,158.372498 358.517273,180.353882 361.567993,206.635437 
z"/>
<path fill="#000000" opacity="1.000000" stroke="none" 
	d="
M298.307129,394.646912 
	C309.023987,396.507935 319.332275,395.893280 329.561066,394.503784 
	C339.723145,393.123291 349.763641,390.961670 359.480225,387.665192 
	C360.439178,389.632202 359.118225,390.222290 358.305878,390.819763 
	C343.532532,401.685303 327.678680,410.330811 309.364777,413.445648 
	C294.549042,415.965576 280.179260,413.148895 266.218994,408.412323 
	C238.138733,398.884918 219.694763,380.042175 212.467529,350.976868 
	C209.708405,339.880615 210.227554,328.548401 211.253876,317.248352 
	C211.553955,313.944427 213.185776,312.662445 216.498657,312.812653 
	C220.820633,313.008575 225.165543,313.008362 229.487198,312.806244 
	C233.144958,312.635162 234.322678,314.017151 234.429184,317.721436 
	C234.848831,332.314728 237.248749,346.441467 244.648087,359.412720 
	C255.473877,378.390686 272.681152,388.142700 292.999695,393.576294 
	C294.602386,394.004852 296.247345,394.275452 298.307129,394.646912 
z"/>
<path fill="#000000" opacity="1.000000" stroke="none" 
	d="
M260.515869,244.397614 
	C279.664856,235.105209 299.110138,227.670303 319.971619,225.192856 
	C333.723022,223.559784 347.567871,224.203400 361.071259,227.991638 
	C361.708313,228.170364 362.306519,228.488174 362.922058,228.743118 
	C371.671875,232.367142 372.230621,235.509888 364.968445,241.642426 
	C360.015045,245.825333 354.708527,249.524536 347.993469,251.887253 
	C347.803009,247.036545 345.021240,244.389160 341.073761,242.968185 
	C317.365509,234.434021 277.790344,234.486893 255.132355,258.240356 
	C250.960464,262.613922 247.058136,267.221863 244.552567,272.688751 
	C242.781982,276.552032 240.268692,277.782867 236.328232,277.383026 
	C233.101303,277.055573 229.774963,277.801849 225.630936,276.556732 
	C234.537460,262.397614 245.342941,251.362823 260.515869,244.397614 
z"/>
<path fill="#000000" opacity="1.000000" stroke="none" 
	d="
M192.954514,351.225891 
	C179.077774,351.225983 165.692474,351.225983 152.307190,351.225983 
	C162.070694,343.571533 162.811493,333.053162 163.784607,322.631378 
	C163.846558,321.967926 163.869812,321.300171 163.952057,320.639496 
	C164.913910,312.913208 164.915924,312.898895 172.630173,312.862732 
	C177.295761,312.840881 181.961685,312.893463 186.627289,312.872864 
	C189.833801,312.858704 190.726822,314.213287 189.709030,317.289276 
	C188.063568,322.262238 185.301285,326.548615 181.323410,331.147980 
	C187.065186,331.623871 192.073975,332.177124 197.097504,332.404205 
	C200.168610,332.542999 201.563263,333.833435 201.783401,336.876617 
	C202.058945,340.686127 202.588135,344.477295 203.008499,348.276337 
	C203.219955,350.187469 202.256241,351.080170 200.442230,351.131500 
	C198.111115,351.197510 195.778137,351.197388 192.954514,351.225891 
z"/>
<path fill="#000000" opacity="1.000000" stroke="none" 
	d="
M270.885803,327.862000 
	C278.567932,325.281250 285.789337,322.298767 291.612885,317.332611 
	C298.503418,311.456573 306.115326,313.060791 313.704559,313.001404 
	C314.296387,315.167572 312.781006,315.636261 311.786896,316.376404 
	C294.097046,329.547272 274.579224,338.987335 253.333984,344.848511 
	C251.526718,345.347137 249.102112,346.633118 247.848831,344.484650 
	C246.020615,341.350647 244.809189,337.770050 245.246307,334.057831 
	C245.429688,332.500488 247.365814,332.818848 248.646027,332.699860 
	C256.124634,332.004974 263.376373,330.265076 270.885803,327.862000 
z"/>
<path fill="#000000" opacity="1.000000" stroke="none" 
	d="
M353.141846,266.069824 
	C350.633392,275.397430 344.997131,279.061554 335.734741,277.402008 
	C332.349579,276.795471 328.770599,277.881287 325.179138,276.724487 
	C325.279755,272.424774 327.009827,269.657135 331.228546,268.114563 
	C339.139130,265.222137 346.909454,261.946014 354.858337,258.781586 
	C355.937195,261.832001 353.873840,263.593903 353.141846,266.069824 
z"/>
<path fill="#000000" opacity="1.000000" stroke="none" 
	d="
M321.721161,296.844299 
	C321.725250,292.601807 322.092377,288.805054 320.880554,284.616974 
	C325.323761,283.539154 329.587952,282.342621 333.204681,285.684540 
	C336.908020,289.106506 333.961517,292.305054 331.904144,295.291656 
	C334.086426,298.723297 336.933777,301.201813 340.015747,303.505157 
	C335.780914,306.328369 332.179108,304.068115 326.897308,295.370422 
	C328.013489,294.472656 329.316040,293.695953 330.247070,292.602814 
	C331.255890,291.418396 331.566864,289.870789 330.568848,288.450104 
	C329.771698,287.315430 328.575073,286.483459 327.185577,286.741699 
	C325.225006,287.106079 325.317566,288.866394 325.373505,290.341492 
	C325.547394,294.925323 324.680420,299.566650 326.169250,304.061829 
	C324.815277,305.631805 323.320679,305.554657 321.713562,304.734741 
	C321.713562,302.217651 321.713562,299.761932 321.721161,296.844299 
z"/>
<path fill="#000000" opacity="1.000000" stroke="none" 
	d="
M268.734100,284.268555 
	C275.886627,283.411285 280.028748,286.214874 281.079865,292.228271 
	C282.066925,297.875336 277.367859,304.011017 270.886475,305.537842 
	C266.068726,306.672729 261.611511,303.713135 260.122192,298.390259 
	C258.582733,292.888336 261.858154,287.327545 268.734100,284.268555 
M269.929718,302.518372 
	C275.309387,303.130341 277.019073,299.475159 277.416534,295.317657 
	C277.824341,291.051971 275.270203,288.139984 271.228241,286.849609 
	C267.976593,285.811493 265.834778,287.627838 264.387604,290.282471 
	C262.201569,294.292480 263.252899,298.474243 267.016022,301.183563 
	C267.675415,301.658295 268.483887,301.925934 269.929718,302.518372 
z"/>
<path fill="#000000" opacity="1.000000" stroke="none" 
	d="
M165.673965,295.035461 
	C165.618530,291.451263 165.992554,288.294861 164.767746,285.361023 
	C170.193649,282.596100 178.560547,283.315247 181.735611,286.906006 
	C184.823074,290.397736 185.119492,294.394073 182.960190,298.507721 
	C180.090469,303.974854 173.912003,306.255981 165.673721,304.734192 
	C165.673721,301.719421 165.673721,298.606384 165.673965,295.035461 
M170.308563,287.056824 
	C168.342789,291.473846 169.506119,296.109253 169.454102,300.644470 
	C169.431564,302.609314 171.220749,302.690247 172.770905,302.705841 
	C176.794846,302.746368 180.660477,298.816040 180.601044,294.723511 
	C180.528305,289.715607 176.633514,286.456024 170.308563,287.056824 
z"/>
<path fill="#000000" opacity="1.000000" stroke="none" 
	d="
M217.099823,295.907349 
	C218.701035,292.269989 220.544678,289.023224 218.855362,285.293762 
	C220.626999,284.017334 222.238159,283.438354 224.361328,284.570282 
	C221.509903,291.872650 219.189514,299.372772 212.888245,306.141968 
	C209.913635,298.589142 207.332397,292.035156 204.719086,285.399750 
	C205.969757,283.749207 207.677597,283.638062 209.855118,284.213837 
	C210.486252,289.368927 212.368835,294.213745 214.691711,298.892700 
	C216.354584,298.516327 216.434982,297.201691 217.099823,295.907349 
z"/>
<path fill="#000000" opacity="1.000000" stroke="none" 
	d="
M287.134552,284.160400 
	C288.980530,283.885681 290.470490,283.773773 291.961700,283.682068 
	C295.726776,283.450531 299.113373,284.060394 300.127472,288.398376 
	C300.890991,291.664429 298.287842,294.795959 293.293365,296.678162 
	C294.377594,294.934692 295.377777,293.540833 296.148499,292.029907 
	C297.014435,290.332184 296.483246,288.769470 295.145874,287.515564 
	C294.264954,286.689575 293.194244,286.159912 291.956024,286.633667 
	C290.143860,287.326965 290.282043,288.988525 290.337219,290.445892 
	C290.510956,295.034241 289.579803,299.673615 291.113800,304.094604 
	C289.553223,305.528839 288.060791,305.613861 285.944672,304.359406 
	C287.677856,297.862915 285.786957,291.075806 287.134552,284.160400 
z"/>
<path fill="#000000" opacity="1.000000" stroke="none" 
	d="
M189.693237,302.937683 
	C189.685928,297.924652 190.117126,293.235779 189.524750,288.680023 
	C188.981812,284.504486 190.862305,283.717194 194.161209,283.854401 
	C196.522522,283.952576 199.022003,283.162079 201.428879,284.605713 
	C199.859909,288.347015 192.505066,284.079773 193.606308,290.585846 
	C194.155487,293.830322 197.690979,291.925354 199.635834,293.749207 
	C197.532654,295.970551 191.982437,295.049042 193.342682,300.528503 
	C194.317535,304.455475 198.033325,301.854828 199.750931,303.729034 
	C196.011597,306.400543 191.549789,306.198029 189.693237,302.937683 
z"/>
<path fill="#000000" opacity="1.000000" stroke="none" 
	d="
M230.660904,284.100983 
	C234.097870,284.083405 237.190582,283.356750 240.493759,284.284668 
	C238.753220,288.311951 231.971603,284.081390 232.471954,290.136993 
	C232.787537,293.956207 236.665771,291.845612 238.632034,293.804443 
	C236.481750,295.990814 230.921707,295.110565 232.332901,300.605530 
	C233.193710,303.957336 236.399368,302.172943 238.206573,304.132751 
	C235.218582,306.317505 232.100601,305.229309 228.324982,305.197021 
	C228.324982,298.659882 228.328979,292.396667 228.321671,286.133453 
	C228.320160,284.828125 229.378464,284.609619 230.660904,284.100983 
z"/>
<path fill="#000000" opacity="1.000000" stroke="none" 
	d="
M304.760803,290.867157 
	C304.627136,288.816742 304.491913,287.174103 304.326172,285.160553 
	C308.065430,283.110413 312.026337,283.783478 316.042236,284.193848 
	C316.085510,286.608246 314.570801,286.428314 313.300476,286.416656 
	C311.046661,286.395966 308.781708,286.332855 308.494232,289.369171 
	C308.146393,293.042755 310.994720,292.536377 313.200256,292.891510 
	C313.624237,292.959778 313.998779,293.334869 314.664185,293.725983 
	C312.714111,296.173462 307.166687,294.726746 308.259888,300.224213 
	C309.011261,304.002686 312.391907,302.194977 314.337158,304.109955 
	C311.350342,306.365417 308.184265,305.141968 304.759216,305.300537 
	C304.759216,300.453735 304.759216,295.864349 304.760803,290.867157 
z"/>
<path fill="#000000" opacity="1.000000" stroke="none" 
	d="
M249.227783,305.372498 
	C246.234344,305.554993 245.446579,304.557343 245.605820,301.861298 
	C245.935059,296.286652 246.422226,290.662689 245.023239,285.209778 
	C246.524429,283.373566 248.197723,283.623566 250.255051,284.206360 
	C249.948685,287.510254 249.557007,290.605652 249.394135,293.713043 
	C248.988342,301.454590 249.030136,301.456787 256.350586,303.632416 
	C254.621796,306.462402 251.863693,304.920044 249.227783,305.372498 
z"/>
<path fill="#000000" opacity="1.000000" stroke="none" 
	d="
M335.221985,251.036224 
	C334.641144,253.470261 333.388214,255.108276 331.151245,256.728210 
	C330.387878,254.157959 330.359558,251.907776 331.866516,250.089081 
	C332.839569,248.914764 334.264160,249.462372 335.221985,251.036224 
z"/>
</svg>